<?xml version="1.0" encoding="UTF-8"?>
<svg xmlns="http://www.w3.org/2000/svg" width="1000" height="1000" viewBox="0 0 1000 1000" role="img" aria-label="Executives">
<rect width="1000" height="1000" fill="#FBF9F6"/>
<g fill="none" stroke="#1A1A1A" stroke-linecap="round" stroke-linejoin="round">
<polygon points="500.00,454.00 532.53,467.47 546.00,500.00 532.53,532.53 500.00,546.00 467.47,532.53 454.00,500.00 467.47,467.47" stroke-width="4.14"/>
<polygon points="500.00,428.49 550.56,449.44 571.51,500.00 550.56,550.56 500.00,571.51 449.44,550.56 428.49,500.00 449.44,449.44" stroke-width="4.14"/>
<polygon points="500.00,381.85 583.55,416.45 618.15,500.00 583.55,583.55 500.00,618.15 416.45,583.55 381.85,500.00 416.45,416.45" stroke-width="4.14"/>
<polygon points="500.00,321.45 626.25,373.75 678.55,500.00 626.25,626.25 500.00,678.55 373.75,626.25 321.45,500.00 373.75,373.75" stroke-width="4.14"/>
<polygon points="500.00,249.93 676.83,323.17 750.07,500.00 676.83,676.83 500.00,750.07 323.17,676.83 249.93,500.00 323.17,323.17" stroke-width="4.14"/>
<polygon points="500.00,168.80 734.19,265.81 831.20,500.00 734.19,734.19 500.00,831.20 265.81,734.19 168.80,500.00 265.81,265.81" stroke-width="4.14"/>
</g>
<g fill="#1A1A1A">
<circle cx="500.00" cy="500.00" r="6.62"/>
<circle cx="500.00" cy="454.00" r="6.26"/>
<circle cx="532.53" cy="467.47" r="6.26"/>
<circle cx="546.00" cy="500.00" r="6.26"/>
<circle cx="532.53" cy="532.53" r="6.26"/>
<circle cx="500.00" cy="546.00" r="6.26"/>
<circle cx="467.47" cy="532.53" r="6.26"/>
<circle cx="454.00" cy="500.00" r="6.26"/>
<circle cx="467.47" cy="467.47" r="6.26"/>
<circle cx="500.00" cy="428.49" r="6.26"/>
<circle cx="550.56" cy="449.44" r="6.26"/>
<circle cx="571.51" cy="500.00" r="6.26"/>
<circle cx="550.56" cy="550.56" r="6.26"/>
<circle cx="500.00" cy="571.51" r="6.26"/>
<circle cx="449.44" cy="550.56" r="6.26"/>
<circle cx="428.49" cy="500.00" r="6.26"/>
<circle cx="449.44" cy="449.44" r="6.26"/>
<circle cx="500.00" cy="381.85" r="6.26"/>
<circle cx="583.55" cy="416.45" r="6.26"/>
<circle cx="618.15" cy="500.00" r="6.26"/>
<circle cx="583.55" cy="583.55" r="6.26"/>
<circle cx="500.00" cy="618.15" r="6.26"/>
<circle cx="416.45" cy="583.55" r="6.26"/>
<circle cx="381.85" cy="500.00" r="6.26"/>
<circle cx="416.45" cy="416.45" r="6.26"/>
<circle cx="500.00" cy="321.45" r="6.26"/>
<circle cx="626.25" cy="373.75" r="6.26"/>
<circle cx="678.55" cy="500.00" r="6.26"/>
<circle cx="626.25" cy="626.25" r="6.26"/>
<circle cx="500.00" cy="678.55" r="6.26"/>
<circle cx="373.75" cy="626.25" r="6.26"/>
<circle cx="321.45" cy="500.00" r="6.26"/>
<circle cx="373.75" cy="373.75" r="6.26"/>
<circle cx="500.00" cy="249.93" r="6.26"/>
<circle cx="676.83" cy="323.17" r="6.26"/>
<circle cx="750.07" cy="500.00" r="6.26"/>
<circle cx="676.83" cy="676.83" r="6.26"/>
<circle cx="500.00" cy="750.07" r="6.26"/>
<circle cx="323.17" cy="676.83" r="6.26"/>
<circle cx="249.93" cy="500.00" r="6.26"/>
<circle cx="323.17" cy="323.17" r="6.26"/>
<circle cx="500.00" cy="168.80" r="6.26"/>
<circle cx="734.19" cy="265.81" r="6.26"/>
<circle cx="831.20" cy="500.00" r="6.26"/>
<circle cx="734.19" cy="734.19" r="6.26"/>
<circle cx="500.00" cy="831.20" r="6.26"/>
<circle cx="265.81" cy="734.19" r="6.26"/>
<circle cx="168.80" cy="500.00" r="6.26"/>
<circle cx="265.81" cy="265.81" r="6.26"/>
</g></svg>
