<?xml version="1.0" encoding="UTF-8"?>
<svg xmlns="http://www.w3.org/2000/svg" width="160" height="120" viewBox="0 0 160 120" role="img" aria-label="TIDL tablet">
<defs>
  <linearGradient id="bg" x1="0" y1="0" x2="1" y2="1">
    <stop offset="0%" stop-color="#D7E3EE"/>
    <stop offset="100%" stop-color="#AFC0D4"/>
  </linearGradient>
  <filter id="soft" x="-40%" y="-40%" width="180%" height="180%">
    <feDropShadow dx="0" dy="3.5" stdDeviation="4" flood-color="#000" flood-opacity="0.24"/>
  </filter>
  <linearGradient id="sheen" x1="0" y1="0" x2="0" y2="1">
    <stop offset="0%" stop-color="#fff" stop-opacity="0.55"/>
    <stop offset="45%" stop-color="#fff" stop-opacity="0.08"/>
    <stop offset="100%" stop-color="#000" stop-opacity="0.14"/>
  </linearGradient>
  <radialGradient id="glow" cx="35%" cy="30%" r="65%">
    <stop offset="0%" stop-color="#fff" stop-opacity="0.35"/>
    <stop offset="100%" stop-color="#fff" stop-opacity="0"/>
  </radialGradient>
</defs>
<rect width="160" height="120" rx="18" fill="url(#bg)"/>
<rect width="160" height="120" rx="18" fill="url(#glow)"/>
  <g filter="url(#soft)" transform="translate(80 60) rotate(45)">
    <rect x="-27" y="-27" width="54" height="54" rx="11" fill="#355A82"/>
    <rect x="-27" y="-27" width="54" height="54" rx="11" fill="url(#sheen)"/>
    <rect x="-21" y="-21" width="42" height="42" rx="8" fill="none" stroke="#fff" stroke-opacity="0.22" stroke-width="1"/>
  </g>
<g transform="translate(80,60) scale(0.7)" opacity="0.72" fill="#F3F7FB">
  <path d="M-16.5 -3.2h6.2v1.55h-2.2v4.85h-1.8V-1.65h-2.2z"/>
  <rect x="-8.2" y="-3.2" width="1.7" height="6.4"/>
  <path d="M-4.8 -3.2h3.9c1.85 0 3.25 1.45 3.25 3.2s-1.4 3.2-3.25 3.2h-3.9V-3.2zm1.7 1.45v3.5h2.05c.85 0 1.5-.65 1.5-1.75s-.65-1.75-1.5-1.75H-3.1z"/>
  <path d="M5.4 -3.2h1.7v4.85H12.8v1.55H5.4z"/>
</g>
</svg>
